<svg id="visual" viewBox="0 0 960 540" width="960" height="540" xmlns="http://www.w3.org/2000/svg" xmlns:xlink="http://www.w3.org/1999/xlink" version="1.1"><rect x="0" y="0" width="960" height="540" fill="#001220"></rect><defs><linearGradient id="grad1_0" x1="43.8%" y1="100%" x2="100%" y2="0%"><stop offset="14.444444444444446%" stop-color="#001220" stop-opacity="1"></stop><stop offset="85.55555555555554%" stop-color="#001220" stop-opacity="1"></stop></linearGradient></defs><defs><linearGradient id="grad2_0" x1="0%" y1="100%" x2="56.3%" y2="0%"><stop offset="14.444444444444446%" stop-color="#001220" stop-opacity="1"></stop><stop offset="85.55555555555554%" stop-color="#001220" stop-opacity="1"></stop></linearGradient></defs><g transform="translate(960, 540)"><path d="M-405 0C-412.3 -50.2 -419.6 -100.3 -385.2 -125.2C-350.8 -150 -274.6 -149.4 -245.9 -178.7C-217.3 -208 -236 -267.1 -223.4 -307.4C-210.7 -347.7 -166.7 -369.2 -124.2 -382.3C-81.8 -395.4 -40.9 -400.2 0 -405L0 0Z" fill="#FBAE3C"></path></g><g transform="translate(0, 0)"><path d="M405 0C393.1 44.6 381.3 89.2 350 113.7C318.7 138.3 268.1 142.8 253.2 184C238.4 225.2 259.4 303.2 238.1 327.7C216.7 352.1 153 323.2 106.3 327.2C59.6 331.1 29.8 368.1 0 405L0 0Z" fill="#FBAE3C"></path></g></svg>